<svg width="31" height="31" viewBox="0 0 31 31" fill="none" xmlns="http://www.w3.org/2000/svg">
<g clip-path="url(#clip0_2774_283)">
<path d="M29.3075 30.4978C30.2216 30.4978 30.9628 29.7566 30.9628 28.8422V2.15563C30.9628 1.24125 30.2216 0.5 29.3075 0.5H2.62096C1.70627 0.5 0.965332 1.24125 0.965332 2.15563V28.8422C0.965332 29.7566 1.70627 30.4978 2.62096 30.4978H29.3075Z" fill="white"/>
<path d="M21.663 30.4977V18.8811H25.5624L26.1461 14.3536H21.663V11.4633C21.663 10.1524 22.0271 9.25927 23.9067 9.25927L26.3039 9.25802V5.20896C25.8892 5.15396 24.4664 5.03052 22.8108 5.03052C19.3542 5.03052 16.988 7.14052 16.988 11.0149V14.3536H13.0786V18.8808H16.988V30.4977H21.663Z" fill="#838383"/>
</g>
<defs>
<clipPath id="clip0_2774_283">
<rect width="30" height="30" fill="white" transform="translate(0.965332 0.5)"/>
</clipPath>
</defs>
</svg>
