<svg width="31" height="31" viewBox="0 0 31 31" fill="none" xmlns="http://www.w3.org/2000/svg">
<g clip-path="url(#clip0_2774_272)">
<mask id="mask0_2774_272" style="mask-type:luminance" maskUnits="userSpaceOnUse" x="0" y="0" width="31" height="31">
<path d="M0.990234 0.524658H30.9902V30.5247H0.990234V0.524658Z" fill="white"/>
</mask>
<g mask="url(#mask0_2774_272)">
<path d="M30.9908 25.9633C30.9908 28.4808 28.9495 30.5218 26.432 30.5218H5.55014C3.03264 30.5218 0.991699 28.4808 0.991699 25.9633V5.08145C0.991699 2.56364 3.03264 0.522705 5.55014 0.522705H26.432C28.9498 0.522705 30.9908 2.56364 30.9908 5.08145V25.9633Z" fill="white"/>
</g>
<path d="M12.8535 11.2256C12.8535 11.299 12.8497 11.3724 12.8425 11.4452C12.8353 11.5184 12.8247 11.5909 12.8103 11.6627C12.796 11.7349 12.7781 11.8059 12.7569 11.8762C12.7356 11.9465 12.711 12.0156 12.6828 12.0834C12.6547 12.1512 12.6235 12.2174 12.5888 12.2821C12.5544 12.3468 12.5166 12.4096 12.4756 12.4709C12.435 12.5318 12.3913 12.5906 12.3447 12.6474C12.2981 12.704 12.2491 12.7584 12.1972 12.8102C12.1453 12.8621 12.091 12.9115 12.0341 12.9581C11.9775 13.0046 11.9185 13.0484 11.8575 13.089C11.7966 13.1299 11.7335 13.1674 11.6688 13.2021C11.6041 13.2368 11.5378 13.2681 11.47 13.2962C11.4022 13.3243 11.3331 13.349 11.2628 13.3702C11.1928 13.3915 11.1216 13.4093 11.0497 13.4237C10.9775 13.4381 10.905 13.4487 10.8322 13.4559C10.7591 13.4631 10.686 13.4668 10.6125 13.4668C10.5391 13.4668 10.466 13.4631 10.3928 13.4559C10.3197 13.4487 10.2472 13.4381 10.1753 13.4237C10.1031 13.4093 10.0322 13.3915 9.96189 13.3702C9.89158 13.349 9.82252 13.3243 9.75471 13.2962C9.68689 13.2681 9.62064 13.2368 9.55596 13.2021C9.49127 13.1674 9.42846 13.1299 9.36752 13.089C9.30627 13.0484 9.24752 13.0046 9.19064 12.9581C9.13408 12.9115 9.07971 12.8621 9.02783 12.8102C8.97596 12.7584 8.92658 12.704 8.88002 12.6474C8.83346 12.5906 8.79002 12.5318 8.74908 12.4709C8.70846 12.4096 8.67064 12.3468 8.63596 12.2821C8.60158 12.2174 8.57002 12.1512 8.54189 12.0834C8.51408 12.0156 8.48908 11.9465 8.46783 11.8762C8.44658 11.8059 8.42877 11.7349 8.41439 11.6627C8.40002 11.5909 8.38939 11.5184 8.38221 11.4452C8.37502 11.3724 8.37158 11.299 8.37158 11.2256C8.37158 11.1524 8.37502 11.079 8.38221 11.0059C8.38939 10.9331 8.40002 10.8606 8.41439 10.7884C8.42877 10.7165 8.44658 10.6452 8.46783 10.5752C8.48908 10.5049 8.51408 10.4359 8.54189 10.3681C8.57002 10.3002 8.60158 10.234 8.63596 10.1693C8.67064 10.1046 8.70846 10.0418 8.74908 9.98056C8.79002 9.91962 8.83346 9.86087 8.88002 9.80399C8.92658 9.74712 8.97596 9.69306 9.02783 9.64118C9.07971 9.58899 9.13408 9.53993 9.19064 9.49337C9.24752 9.44681 9.30627 9.40306 9.36752 9.36243C9.42846 9.32149 9.49127 9.28399 9.55596 9.24931C9.62064 9.21462 9.68689 9.18337 9.75471 9.15524C9.82252 9.12712 9.89158 9.10243 9.96189 9.08118C10.0322 9.05993 10.1031 9.04212 10.1753 9.02774C10.2472 9.01337 10.3197 9.00274 10.3928 8.99556C10.466 8.98837 10.5391 8.98462 10.6125 8.98462C10.686 8.98462 10.7591 8.98837 10.8322 8.99556C10.905 9.00274 10.9775 9.01337 11.0497 9.02774C11.1216 9.04212 11.1928 9.05993 11.2628 9.08118C11.3331 9.10243 11.4022 9.12712 11.47 9.15524C11.5378 9.18337 11.6041 9.21462 11.6688 9.24931C11.7335 9.28399 11.7966 9.32149 11.8575 9.36243C11.9185 9.40306 11.9775 9.44681 12.0341 9.49337C12.091 9.53993 12.1453 9.58899 12.1972 9.64118C12.2491 9.69306 12.2981 9.74712 12.3447 9.80399C12.3913 9.86087 12.435 9.91962 12.4756 9.98056C12.5166 10.0418 12.5544 10.1046 12.5888 10.1693C12.6235 10.234 12.6547 10.3002 12.6828 10.3681C12.711 10.4359 12.7356 10.5049 12.7569 10.5752C12.7781 10.6452 12.796 10.7165 12.8103 10.7884C12.8247 10.8606 12.8353 10.9331 12.8425 11.0059C12.8497 11.079 12.8535 11.1524 12.8535 11.2256Z" fill="#838383"/>
<path d="M8.68066 15.1191H12.5307V27.5045H8.68066V15.1191Z" fill="#838383"/>
<path d="M14.9517 15.1191H18.616V27.5045H14.9517V15.1191Z" fill="#838383"/>
<path d="M15.1104 21.7131H18.7747V27.5044H15.1104V21.7131Z" fill="#838383"/>
<path d="M18.7745 21.7132C18.7745 21.7132 18.717 20.1069 19.1407 19.2716C19.1407 19.2716 19.5645 18.2429 20.8964 18.2369C20.8964 18.2369 22.4579 17.9641 22.906 19.5138C22.906 19.5138 23.0754 20.3732 23.0754 20.7366C23.0754 21.1001 23.0876 27.5044 23.0876 27.5044H26.9254V20.4098C26.9254 20.4098 27.2039 16.4023 24.7985 15.3044C24.7985 15.3044 20.8435 13.5291 18.697 16.7898C18.697 16.7898 18.2289 17.1126 18.1642 16.2085C18.0995 15.3044 17.5507 17.5969 17.5345 17.6454C17.5182 17.6938 18.1642 22.2138 18.1642 22.2138L18.7745 21.7132Z" fill="#838383"/>
</g>
<defs>
<clipPath id="clip0_2774_272">
<rect width="30" height="30" fill="white" transform="translate(0.965332 0.5)"/>
</clipPath>
</defs>
</svg>
