<svg width="30" height="30" viewBox="0 0 30 30" fill="none" xmlns="http://www.w3.org/2000/svg">
<g clip-path="url(#clip0_3551_532)">
<path d="M25.5694 4.43063L28.7119 5.05876C28.8806 5.09251 29.0194 5.21626 29.0681 5.38314C29.0927 5.4642 29.0949 5.55042 29.0745 5.63263C29.054 5.71483 29.0116 5.78996 28.9519 5.85001L26.3775 8.42626C26.069 8.73301 25.6519 8.90552 25.2169 8.90626H23.0813L17.7187 14.2706C17.8211 14.6569 17.8399 15.0606 17.7739 15.4547C17.708 15.8489 17.5588 16.2244 17.3364 16.5564C17.1139 16.8883 16.8233 17.1691 16.4838 17.3799C16.1443 17.5907 15.7638 17.7268 15.3677 17.779C14.9715 17.8313 14.5687 17.7985 14.1862 17.6829C13.8037 17.5673 13.4502 17.3715 13.1493 17.1085C12.8484 16.8455 12.607 16.5215 12.4411 16.1579C12.2753 15.7944 12.1888 15.3996 12.1875 15C12.1874 14.5684 12.2866 14.1426 12.4775 13.7555C12.6684 13.3685 12.9458 13.0305 13.2882 12.7678C13.6307 12.5052 14.0289 12.3248 14.4523 12.2408C14.8756 12.1567 15.3126 12.1712 15.7294 12.2831L21.0938 6.91688V4.78501C21.0938 4.35001 21.2662 3.93188 21.5737 3.62438L24.15 1.04813C24.2101 0.988376 24.2852 0.94601 24.3674 0.92554C24.4496 0.90507 24.5358 0.907263 24.6169 0.931885C24.7837 0.980635 24.9075 1.11938 24.9412 1.28813L25.5694 4.43063Z" fill="#35C1FF"/>
<path d="M3.75005 15C3.75198 16.6087 4.09888 18.1982 4.76736 19.6614C5.43585 21.1246 6.41036 22.4275 7.62516 23.482C8.83996 24.5366 10.2668 25.3184 11.8094 25.7746C13.3521 26.2308 14.9746 26.3509 16.5676 26.1268C18.1606 25.9026 19.6869 25.3395 21.0438 24.4752C22.4006 23.611 23.5563 22.4659 24.4329 21.117C25.3096 19.7682 25.8867 18.247 26.1255 16.6562C26.3642 15.0653 26.259 13.4417 25.8169 11.895C25.7549 11.7143 25.7302 11.5228 25.7445 11.3323C25.7588 11.1418 25.8117 10.9561 25.9 10.7867C25.9883 10.6173 26.1102 10.4676 26.2582 10.3468C26.4062 10.2259 26.5773 10.1365 26.761 10.0839C26.9447 10.0313 27.1371 10.0166 27.3267 10.0407C27.5162 10.0649 27.6988 10.1274 27.8635 10.2244C28.0281 10.3213 28.1712 10.4508 28.2842 10.6049C28.3972 10.759 28.4777 10.9345 28.5207 11.1206C29.3767 14.116 29.2141 17.3108 28.0584 20.2037C26.9027 23.0967 24.8194 25.5242 22.1352 27.1054C19.451 28.6865 16.3179 29.3319 13.2273 28.9402C10.1368 28.5486 7.26369 27.142 5.0588 24.9412C2.85632 22.7369 1.44825 19.8635 1.05568 16.7723C0.66311 13.681 1.30826 10.5469 2.88984 7.862C4.47142 5.17711 6.89987 3.09348 9.79392 1.93825C12.688 0.783026 15.8837 0.621616 18.8794 1.47937C19.2361 1.58364 19.5371 1.82487 19.7164 2.15034C19.8958 2.47581 19.9391 2.85906 19.8368 3.21632C19.7344 3.57359 19.4948 3.87583 19.1704 4.05698C18.8459 4.23814 18.4629 4.28349 18.105 4.18312C16.4299 3.70208 14.6658 3.61684 12.9521 3.93412C11.2383 4.25139 9.62173 4.96251 8.22979 6.01137C6.83784 7.06024 5.70864 8.41816 4.93122 9.97805C4.15381 11.5379 3.74945 13.2571 3.75005 15Z" fill="#35C1FF"/>
<path d="M9.37504 15C9.37515 16.0249 9.65507 17.0302 10.1846 17.9077C10.7141 18.7851 11.4732 19.5014 12.3799 19.9791C13.2866 20.4569 14.3065 20.678 15.3296 20.6187C16.3527 20.5594 17.3403 20.2218 18.1857 19.6425C19.0309 19.0617 19.7013 18.2609 20.1243 17.3266C20.5473 16.3924 20.7068 15.3602 20.5857 14.3419C20.5529 14.0948 20.5866 13.8434 20.6833 13.6136C20.7799 13.3838 20.9361 13.184 21.1357 13.0346C21.3353 12.8852 21.5711 12.7918 21.8188 12.7638C22.0665 12.7359 22.3172 12.7745 22.545 12.8756C22.7728 12.9755 22.9701 13.1339 23.1167 13.3348C23.2632 13.5358 23.3539 13.772 23.3794 14.0194C23.5831 15.7596 23.2401 17.52 22.3979 19.0564C21.5557 20.5928 20.2561 21.8288 18.6794 22.5931C17.1028 23.3573 15.3274 23.6117 13.5996 23.3211C11.8718 23.0305 10.2773 22.2092 9.03747 20.9712C7.79763 19.7333 6.97392 18.14 6.68067 16.4127C6.38743 14.6853 6.63919 12.9095 7.40101 11.3318C8.16284 9.75397 9.39694 8.45249 10.932 7.60794C12.4671 6.76339 14.227 6.41766 15.9675 6.61875C16.1539 6.63604 16.3349 6.69037 16.5 6.77853C16.6651 6.8667 16.811 6.98693 16.929 7.13219C17.047 7.27745 17.1349 7.44481 17.1874 7.62446C17.2399 7.80411 17.256 7.99244 17.2348 8.1784C17.2136 8.36436 17.1555 8.54421 17.0638 8.70742C16.9722 8.87062 16.8489 9.01389 16.7012 9.12883C16.5535 9.24377 16.3843 9.32807 16.2036 9.37678C16.0229 9.42549 15.8343 9.43764 15.6488 9.4125C14.8606 9.32099 14.0621 9.39726 13.3055 9.63628C12.5489 9.87531 11.8515 10.2717 11.2589 10.7994C10.6664 11.3271 10.1923 11.9742 9.86757 12.6981C9.54289 13.4221 9.37504 14.2066 9.37504 15Z" fill="#35C1FF"/>
</g>
<defs>
<clipPath id="clip0_3551_532">
<rect width="30" height="30" fill="white"/>
</clipPath>
</defs>
</svg>
