<svg width="16" height="20" viewBox="0 0 16 20" fill="none" xmlns="http://www.w3.org/2000/svg">
<path d="M6.9797 11.1868L8.21577 7.38258C8.38573 6.8595 8.09681 6.29247 7.57373 6.12251L3.7695 4.88644L4.38754 2.98433L9.14282 4.52941L9.76085 2.6273L7.38321 1.85476L7.69223 0.903699L5.79012 0.285665L5.4811 1.23672L4.05452 0.773196C3.53143 0.603237 2.9644 0.892155 2.79444 1.41524L1.55837 5.21946C1.38841 5.74254 1.67733 6.30958 2.20041 6.47954L6.00464 7.7156L5.38661 9.61772L0.631323 8.07263L0.0132886 9.97474L2.39093 10.7473L2.08191 11.6983L3.98403 12.3164L4.29304 11.3653L5.71963 11.8288C6.24271 11.9988 6.80974 11.7099 6.9797 11.1868ZM14.3465 13.0757L7.21762 16.7002L5.40065 13.1342L3.62086 14.049L6.3431 19.3917L15.2518 14.8524L14.3465 13.0757Z" fill="#35C1FF"/>
</svg>
