<svg width="25" height="25" viewBox="0 0 25 25" fill="none" xmlns="http://www.w3.org/2000/svg">
<path d="M10.1598 0.300531C16.6425 -1.07742 23.0145 3.06059 24.3925 9.54336C25.7704 16.0261 21.6324 22.3981 15.1496 23.7761C8.66688 25.154 2.29489 21.016 0.916937 14.5332C-0.461018 8.05047 3.677 1.67849 10.1598 0.300531ZM10.4606 7.08341C10.2436 7.13018 10.054 7.26091 9.93309 7.44706C9.8122 7.6332 9.76991 7.85962 9.81543 8.07685L11.2079 14.6277C11.3042 15.0808 11.7482 15.3692 12.2013 15.2729L18.7522 13.8804C18.8632 13.8612 18.9691 13.8198 19.0638 13.7586C19.1584 13.6975 19.2397 13.6178 19.3028 13.5245C19.366 13.4312 19.4096 13.3261 19.4312 13.2156C19.4528 13.105 19.4519 12.9912 19.4284 12.881C19.405 12.7708 19.3596 12.6664 19.2949 12.5742C19.2302 12.482 19.1476 12.4037 19.0519 12.3441C18.9563 12.2846 18.8497 12.2449 18.7383 12.2276C18.627 12.2102 18.5133 12.2154 18.4041 12.243L12.6714 13.4615L11.4529 7.72881C11.4061 7.51204 11.2756 7.32254 11.0897 7.20164C10.9038 7.08074 10.6777 7.03824 10.4606 7.08341Z" fill="#35C1FF"/>
</svg>
