<svg width="31" height="30" viewBox="0 0 31 30" fill="none" xmlns="http://www.w3.org/2000/svg">
<path d="M11.5147 16.2386C12.5394 15.964 13.4131 15.2936 13.9435 14.3749C14.4739 13.4562 14.6177 12.3643 14.3431 11.3396C14.0685 10.3149 13.3981 9.44124 12.4794 8.9108C11.5607 8.38037 10.4688 8.23663 9.44411 8.5112C8.4194 8.78578 7.54572 9.45617 7.01529 10.3749C6.48486 11.2936 6.34111 12.3855 6.61569 13.4102C6.89026 14.4349 7.56065 15.3086 8.47939 15.839C9.39813 16.3694 10.4899 16.5132 11.5147 16.2386ZM20.208 13.9092C20.9765 13.7033 21.6318 13.2005 22.0296 12.5115C22.4274 11.8224 22.5352 11.0035 22.3293 10.235C22.1234 9.46647 21.6206 8.81121 20.9315 8.41339C20.2425 8.01556 19.4236 7.90775 18.6551 8.11368C17.8865 8.31961 17.2313 8.82241 16.8335 9.51146C16.4356 10.2005 16.3278 11.0194 16.5338 11.7879C16.7397 12.5565 17.2425 13.2117 17.9315 13.6095C18.6206 14.0074 19.4395 14.1152 20.208 13.9092ZM8.41008 19.141C7.83368 19.2955 7.34224 19.6726 7.04387 20.1894C6.7455 20.7062 6.66465 21.3203 6.81909 21.8967L6.8838 22.1382C6.8838 22.1382 8.04848 26.4849 13.844 24.9319C19.6396 23.379 18.4749 19.0324 18.4749 19.0324L18.4102 18.7909C18.2558 18.2145 17.8787 17.723 17.3619 17.4247C16.8451 17.1263 16.2309 17.0454 15.6545 17.1999L8.41008 19.141ZM22.1491 21.1537C21.018 21.4568 20.1048 21.5141 19.3695 21.4243C19.5811 20.6691 19.6287 19.8772 19.5092 19.102C19.4941 19.008 19.4756 18.9146 19.4538 18.8218L19.3761 18.5321C19.1605 17.7225 18.6397 17.0279 17.923 16.5941L18.021 16.5658L23.4302 15.1164C23.9938 14.9654 24.5943 15.0444 25.0996 15.3362C25.6049 15.6279 25.9737 16.1084 26.1247 16.672C26.1247 16.672 26.9788 19.8596 22.1491 21.1537Z" fill="#35C1FF"/>
</svg>
