<svg width="30" height="30" viewBox="0 0 30 30" fill="none" xmlns="http://www.w3.org/2000/svg">
<path d="M3.125 10.2338C3.255 7.60875 3.64375 5.97125 4.80875 4.80875C5.97125 3.64375 7.60875 3.255 10.2338 3.125M26.875 10.2338C26.745 7.60875 26.3562 5.97125 25.1912 4.80875C24.0287 3.64375 22.3912 3.255 19.7662 3.125M19.7662 26.875C22.3912 26.745 24.0287 26.3562 25.1912 25.1912C26.3562 24.0287 26.745 22.3912 26.875 19.7662M10.2338 26.875C7.60875 26.745 5.97125 26.3562 4.80875 25.1912C3.64375 24.0287 3.255 22.3912 3.125 19.7662M24.5438 14.1475C24.8475 14.5275 25 14.7188 25 15C25 15.2812 24.8475 15.4725 24.5438 15.8525C23.1775 17.5625 19.6887 21.25 15 21.25C10.3113 21.25 6.8225 17.5625 5.45625 15.8525C5.1525 15.4725 5 15.2812 5 15C5 14.7188 5.1525 14.5275 5.45625 14.1475C6.8225 12.4375 10.3113 8.75 15 8.75C19.6887 8.75 23.1775 12.4375 24.5438 14.1475Z" stroke="#35C1FF" stroke-width="1.25" stroke-linecap="round" stroke-linejoin="round"/>
<path d="M17.5 15C17.5 14.337 17.2366 13.7011 16.7678 13.2322C16.2989 12.7634 15.663 12.5 15 12.5C14.337 12.5 13.7011 12.7634 13.2322 13.2322C12.7634 13.7011 12.5 14.337 12.5 15C12.5 15.663 12.7634 16.2989 13.2322 16.7678C13.7011 17.2366 14.337 17.5 15 17.5C15.663 17.5 16.2989 17.2366 16.7678 16.7678C17.2366 16.2989 17.5 15.663 17.5 15Z" stroke="#35C1FF" stroke-width="1.25" stroke-linecap="round" stroke-linejoin="round"/>
</svg>
