<svg width="32" height="31" viewBox="0 0 32 31" fill="none" xmlns="http://www.w3.org/2000/svg">
<mask id="mask0_2774_286" style="mask-type:luminance" maskUnits="userSpaceOnUse" x="0" y="0" width="32" height="31">
<path d="M0.965332 0.5H31.0349V30.5H0.965332V0.5Z" fill="white"/>
</mask>
<g mask="url(#mask0_2774_286)">
<path d="M26.4944 4.80359C23.6703 2.02625 19.9413 0.500732 15.9836 0.500732C15.9473 0.500732 15.91 0.500732 15.873 0.500732C7.6646 0.5591 0.986816 7.34818 0.986816 15.6334V29.6129C0.986816 29.97 1.20252 30.293 1.53242 30.43C1.64191 30.475 1.75683 30.4971 1.87102 30.4971C2.10087 30.4971 2.32709 30.4072 2.49602 30.2383L4.99856 27.735C5.5652 27.1684 6.45122 27.1071 7.10667 27.5882C9.69368 29.4907 12.7621 30.4964 15.9817 30.4964C15.9843 30.4964 15.9868 30.4964 15.9897 30.4964C20.0076 30.4946 23.787 28.9078 26.6314 26.03C29.4769 23.1512 31.0198 19.3508 30.9756 15.33C30.9332 11.3422 29.3409 7.60376 26.4944 4.80359ZM25.3749 24.7884C22.8654 27.3275 19.532 28.7276 15.9897 28.7294C15.9868 28.7294 15.9854 28.7294 15.9825 28.7294C13.1424 28.7294 10.4358 27.8423 8.15438 26.1645C7.54352 25.715 6.83332 25.4938 6.12929 25.4938C5.26285 25.4938 4.40438 25.8292 3.7482 26.4854L2.75523 27.4787V15.6341C2.75523 8.31722 8.64524 2.3228 15.8853 2.2706C15.9179 2.2706 15.9491 2.2706 15.9807 2.2706C23.2033 2.2706 29.1285 8.11928 29.2083 15.3521C29.247 18.8962 27.8861 22.2481 25.3749 24.7884Z" fill="white"/>
</g>
<path d="M21.2486 18.1123C20.7809 17.6446 20.0233 17.6446 19.5556 18.1123L18.8418 18.8261C18.8381 18.8297 18.4158 19.1879 17.7585 19.301C16.3526 19.5425 14.9246 18.46 13.9741 17.5091C11.1391 14.6737 12.3764 12.9571 12.6788 12.6182L13.3712 11.9257C13.8389 11.4581 13.8389 10.7 13.3712 10.232L12.2419 9.10273C11.7743 8.6347 11.0162 8.6347 10.5486 9.10273L9.8351 9.81655C9.62701 10.0243 8.57314 11.1572 8.24867 13.0463C7.95611 14.7517 8.22112 17.4003 11.1514 20.3313C13.5177 22.6983 15.7001 23.3269 17.35 23.3269C17.7437 23.3269 18.1062 23.2918 18.435 23.2352C20.3238 22.9104 21.4567 21.8561 21.6644 21.6484L22.3779 20.9346C22.8455 20.4669 22.8455 19.7089 22.3779 19.2409L21.2486 18.1123ZM12.6744 12.6218C12.6628 12.6341 12.6567 12.6396 12.6567 12.6396L12.6744 12.6218Z" fill="white"/>
</svg>
